<?xml version="1.0" encoding="UTF-8"?>
<svg width="56px" height="56px" viewBox="0 0 56 56" version="1.1" xmlns="http://www.w3.org/2000/svg" xmlns:xlink="http://www.w3.org/1999/xlink">
    <!-- Generator: sketchtool 63.1 (101010) - https://sketch.com -->
    <title>6CD00F4B-0A17-43FD-8730-A436BE6CD5ED@1.50x</title>
    <desc>Created with sketchtool.</desc>
    <g id="Incompatible-browser" stroke="none" stroke-width="1" fill="none" fill-rule="evenodd">
        <g id="XS_375–Navegador_no_compatible" transform="translate(-221.000000, -459.000000)">
            <g id="02.-Content" transform="translate(24.000000, 104.000000)">
                <g id="Bowsers" transform="translate(57.000000, 355.000000)">
                    <g id="Firefox" transform="translate(121.000000, 0.000000)">
                        <g id="Icons-/-02.-Font-Awesome-/-05.-Brands-/-Browsers-/-Firefox" transform="translate(19.000000, 0.000000)">
                            <g transform="translate(0.000000, 0.000000)">
                                <rect id="Bounce" x="0" y="0" width="56" height="56"></rect>
                                <path d="M45.3920539,26.3935354 C45.3392593,26.0541414 45.2864646,25.8580471 45.2864646,25.8580471 C45.2864646,25.8580471 45.1507071,26.0088889 44.9319865,26.3030303 C44.8641077,25.4960269 44.7208081,24.7041077 44.4945455,23.9197306 C44.2154882,22.9468013 43.853468,22.0040404 43.4009428,21.0989899 C43.1143434,20.4956229 42.7824916,19.9224242 42.3978451,19.3793939 C42.2620875,19.1757576 42.1187879,18.9721212 41.9754882,18.783569 C41.3117845,17.6975084 40.5424916,17.0262626 39.6600673,15.766734 C39.0868687,14.8013468 38.687138,13.7379125 38.4985859,12.6292256 C38.2572391,13.3004714 38.0686869,13.9868013 37.9404714,14.6882155 C37.0278788,13.7680808 36.2435017,13.1194613 35.7608081,12.6744781 C33.4227609,10.4721886 33.6942761,9.33333333 33.6942761,9.33333333 C33.6942761,9.33333333 29.2972391,14.2432323 31.1978451,19.3567677 C31.8540067,21.0914478 32.992862,22.6074074 34.4711111,23.7236364 C36.3113805,25.247138 38.3024916,26.4387879 39.3508418,29.5008754 C38.5061279,27.8944108 37.2315152,26.5443771 35.670303,25.6167003 C36.1379125,26.7253872 36.3792593,27.9245791 36.3717172,29.123771 C36.3717172,33.7244444 32.6308418,37.4577778 28.0301684,37.4502357 C27.4041751,37.4502357 26.7857239,37.3823569 26.1823569,37.2390572 C25.4658586,37.1032997 24.7719865,36.8694949 24.1158249,36.5376431 C23.1428956,35.9493603 22.3057239,35.1725253 21.6420202,34.2523906 L21.626936,34.2297643 L21.7777778,34.2825589 C22.1247138,34.4032323 22.4716498,34.4937374 22.83367,34.5616162 C24.2440404,34.8632997 25.7222896,34.6898316 27.0270707,34.0638384 C28.346936,33.3322559 29.1388552,32.7892256 29.7874747,33.0079461 L29.8025589,33.0079461 C30.4360943,33.2115825 30.9338721,32.5931313 30.4813468,31.9520539 C29.6969697,30.9414141 28.4148148,30.4436364 27.1477441,30.669899 C25.8278788,30.8584512 24.6211448,31.8012121 22.8940067,30.8886195 C22.7808754,30.8282828 22.6752862,30.7679461 22.569697,30.7000673 C22.4490236,30.6321886 22.9392593,30.7981145 22.8261279,30.7226936 C22.4490236,30.5341414 22.0870034,30.3154209 21.7400673,30.0740741 C21.7174411,30.0514478 22.0040404,30.157037 21.9738721,30.1344108 C21.5288889,29.8327273 21.1442424,29.4405387 20.8425589,28.9880135 C20.5333333,28.429899 20.503165,27.7511111 20.767138,27.1703704 C20.9255219,26.883771 21.1744108,26.6499663 21.4685522,26.5142088 C21.6948148,26.6273401 21.8305724,26.710303 21.8305724,26.710303 C21.8305724,26.710303 21.7325253,26.5217508 21.6721886,26.4237037 C21.6948148,26.4161616 21.709899,26.4237037 21.7325253,26.4086195 C21.9286195,26.4915825 22.3585185,26.710303 22.5923232,26.8460606 C22.7507071,26.9290236 22.8789226,27.049697 22.9845118,27.2005387 C22.9845118,27.2005387 23.0599327,27.1628283 23.007138,26.9969024 C22.9241751,26.793266 22.7884175,26.619798 22.5998653,26.4991246 L22.6149495,26.4991246 C22.7884175,26.5896296 22.9543434,26.6952189 23.1127273,26.8083502 C23.2560269,26.4764983 23.3239057,26.1144781 23.3088215,25.7524579 C23.3239057,25.5563636 23.2937374,25.3527273 23.2258586,25.1641751 C23.1655219,25.0435017 23.263569,24.9982492 23.3691582,25.1264646 C23.3540741,25.0284175 23.3163636,24.9379125 23.2786532,24.8474074 L23.2786532,24.8398653 C23.2786532,24.8398653 23.3389899,24.7569024 23.3691582,24.726734 C23.4445791,24.6513131 23.5275421,24.5834343 23.6255892,24.5230976 C24.1686195,24.1837037 24.7418182,23.8895623 25.3376431,23.6482155 C25.8203367,23.437037 26.2200673,23.2786532 26.3030303,23.2258586 C26.4237037,23.1504377 26.536835,23.0599327 26.6424242,22.9618855 C27.0421549,22.6224916 27.3212121,22.1473401 27.4117172,21.626936 C27.4192593,21.5590572 27.4268013,21.4911785 27.4343434,21.4157576 L27.4343434,21.3026263 C27.3664646,21.0386532 26.9139394,20.8425589 24.5381818,20.6162963 C23.7010101,20.4805387 23.0297643,19.8545455 22.8412121,19.0249158 L22.8412121,19.0173737 C23.2937374,17.833266 24.1082828,16.8226263 25.1641751,16.1287542 C25.2245118,16.0759596 24.9228283,16.1438384 24.983165,16.0910438 C25.1868013,15.9929966 25.3904377,15.9024916 25.6016162,15.8270707 C25.7072054,15.7818182 25.1490909,15.5706397 24.6513131,15.6234343 C24.3496296,15.6385185 24.0479461,15.7139394 23.7688889,15.8346128 C23.8895623,15.7365657 24.2364983,15.6008081 24.1535354,15.6008081 C23.52,15.7214815 22.9090909,15.9552862 22.3509764,16.279596 C22.3509764,16.2192593 22.3585185,16.1664646 22.3886869,16.11367 C21.9437037,16.3022222 21.5590572,16.6039057 21.2573737,16.9810101 C21.2649158,16.9131313 21.2724579,16.8452525 21.2724579,16.7773737 C21.0688215,16.9282155 20.8802694,17.1016835 20.7218855,17.2977778 L20.7143434,17.3053199 C19.4020202,16.8 17.9765657,16.6793266 16.5963636,16.9508418 L16.5812795,16.9432997 L16.5963636,16.9432997 C16.3097643,16.7094949 16.0608754,16.4379798 15.8647811,16.1212121 L15.849697,16.1287542 L15.8195286,16.11367 C15.7290236,15.9779125 15.6385185,15.8270707 15.5404714,15.6611448 C15.4725926,15.5404714 15.4047138,15.4047138 15.336835,15.2689562 C15.336835,15.2614141 15.3292929,15.2538721 15.3217508,15.2538721 C15.2915825,15.2538721 15.2764983,15.3820875 15.2538721,15.3519192 L15.2538721,15.3443771 C15.0125253,14.7183838 14.8993939,14.047138 14.9220202,13.3683502 L14.906936,13.3758923 C14.5222896,13.6398653 14.2281481,14.0245118 14.0697643,14.4694949 C14.0018855,14.6278788 13.9490909,14.7183838 13.9038384,14.8088889 L13.9038384,14.7711785 C13.9113805,14.6882155 13.9490909,14.5222896 13.9415488,14.5373737 C13.9340067,14.5524579 13.9264646,14.56 13.9189226,14.5675421 C13.8057912,14.6957576 13.700202,14.8465993 13.6247811,15.0049832 C13.5569024,15.1482828 13.4965657,15.2991246 13.4513131,15.4499663 C13.443771,15.4725926 13.4513131,15.4273401 13.4513131,15.3745455 C13.4513131,15.3217508 13.4588552,15.2237037 13.4513131,15.24633 L13.4286869,15.2991246 C12.923367,16.4228956 12.6065993,17.6220875 12.493468,18.8514478 C12.4632997,19.0626263 12.4482155,19.2738047 12.4557576,19.4774411 L12.4557576,19.4925253 C12.0937374,19.8847138 11.7769697,20.3221549 11.4979125,20.7822222 C10.5853199,22.3208081 9.90653199,23.9876094 9.476633,25.7298316 C9.7783165,25.0661279 10.1403367,24.4325926 10.5551515,23.8367677 C9.74814815,25.8806734 9.33333333,28.0603367 9.33333333,30.2626263 C9.46909091,29.6140067 9.65010101,28.9804714 9.86127946,28.3544781 C9.73306397,30.9564983 10.2308418,33.5509764 11.3244444,35.9191919 C12.7876094,39.2 15.2161616,41.952862 18.2857912,43.8157576 C19.5377778,44.6604714 20.9028956,45.316633 22.3434343,45.7616162 C22.5319865,45.8294949 22.7280808,45.8973737 22.9241751,45.9652525 C22.8638384,45.9426263 22.8035017,45.9124579 22.743165,45.8898316 C24.4476768,46.4026936 26.2276094,46.6666667 28.0075421,46.6666667 C34.3202694,46.6666667 36.4018855,44.2607407 36.5904377,44.026936 C36.8996633,43.7478788 37.1560943,43.4084848 37.3371044,43.0238384 C37.4577778,42.9710438 37.5784512,42.9182492 37.7066667,42.8654545 L37.7820875,42.8277441 L37.9253872,42.7598653 C38.8756902,42.3148822 39.7731987,41.7492256 40.5877441,41.093064 C41.8171044,40.2106397 42.6919865,38.9284848 43.0690909,37.4653199 C43.2953535,36.9298316 43.3028956,36.3340067 43.0992593,35.7909764 C43.167138,35.6853872 43.2274747,35.579798 43.3028956,35.4666667 C44.6604714,33.2870034 45.4297643,30.7981145 45.5353535,28.2338047 L45.5353535,28.0226263 C45.5353535,27.4720539 45.490101,26.9290236 45.3920539,26.3935354 L45.3920539,26.3935354 Z M22.9764983,19.0324579 C22.9047034,19.1154209 22.8149599,19.2059259 22.743165,19.296431 C22.8149599,19.2059259 22.8867547,19.122963 22.9764983,19.0324579 Z" id="Icon-Color" fill="#A4B0CB"></path>
                            </g>
                        </g>
                    </g>
                </g>
            </g>
        </g>
    </g>
</svg>