<?xml version="1.0" encoding="UTF-8"?>
<svg width="56px" height="56px" viewBox="0 0 56 56" version="1.1" xmlns="http://www.w3.org/2000/svg" xmlns:xlink="http://www.w3.org/1999/xlink">
    <!-- Generator: sketchtool 63.1 (101010) - https://sketch.com -->
    <title>8D43C6CA-7276-4F47-9273-E4F8AC0BC643@1.50x</title>
    <desc>Created with sketchtool.</desc>
    <g id="Incompatible-browser" stroke="none" stroke-width="1" fill="none" fill-rule="evenodd">
        <g id="XS_375–Navegador_no_compatible" transform="translate(-105.000000, -459.000000)">
            <g id="02.-Content" transform="translate(24.000000, 104.000000)">
                <g id="Bowsers" transform="translate(57.000000, 355.000000)">
                    <g id="Chrome">
                        <g id="Icons-/-02.-Font-Awesome-/-05.-Brands-/-Browsers-/-Chrome" transform="translate(24.000000, 0.000000)">
                            <g transform="translate(0.000000, 0.000000)">
                                <rect id="Bounce" x="0" y="0" width="56" height="56"></rect>
                                <path d="M19.2311828,25.1034663 L13.4806452,16.2664262 C17.0634409,11.8102698 22.4376344,9.3563728 27.9322581,9.33379093 C31.116129,9.31120905 34.3677419,10.1241565 37.3258065,11.8328516 C40.5924731,13.7297291 43.0763441,16.4546085 44.6569892,19.5859617 L29.2043011,18.7730143 C24.8311828,18.5170863 20.6688172,20.9785106 19.2311828,25.1034663 Z M21.7075269,28.0014734 C21.7075269,31.479082 24.5225806,34.294289 28,34.294289 C31.4774194,34.294289 34.2924731,31.479082 34.2924731,28.0014734 C34.2924731,24.5238648 31.4774194,21.7086579 28,21.7086579 C24.5225806,21.7086579 21.7075269,24.5163375 21.7075269,28.0014734 Z M45.4096774,21.2871296 L34.8946237,21.8290945 C37.7473118,25.1636846 37.7924731,29.9736238 35.3913978,33.6619965 L26.9537634,46.6390468 C30.4537634,46.827229 34.0591398,46.0594453 37.3258065,44.1625679 C45.4096774,39.4956473 48.683871,29.7101686 45.4096774,21.2871296 Z M19.3967742,31.5844641 L12.3741935,17.7718845 C10.4548387,20.7075281 9.33333333,24.2303005 9.33333333,28.0014734 C9.33333333,37.3353147 16.1677419,45.0658429 25.1021505,46.4358099 L29.8967742,37.0417503 C25.5612903,37.8546978 21.3763441,35.4760737 19.3967742,31.5844641 Z" id="Icon-Color" fill="#A4B0CB"></path>
                            </g>
                        </g>
                    </g>
                </g>
            </g>
        </g>
    </g>
</svg>